<?xml version="1.0" encoding="UTF-8"?>
<svg id="Layer_2" data-name="Layer 2" xmlns="http://www.w3.org/2000/svg" xmlns:xlink="http://www.w3.org/1999/xlink" viewBox="0 0 36 36">
  <defs>
    <style>
      .cls-1 {
        fill: url(#linear-gradient);
      }

      .cls-2 {
        fill: #fff;
      }
    </style>
    <linearGradient id="linear-gradient" x1="18" y1="7.28" x2="18" y2="30.02" gradientUnits="userSpaceOnUse">
      <stop offset=".73" stop-color="#ff3b38"/>
      <stop offset="1" stop-color="#ff6a51"/>
    </linearGradient>
  </defs>
  <g id="Layer_1-2" data-name="Layer 1">
    <g>
      <circle class="cls-2" cx="18" cy="18" r="18"/>
      <g>
        <polygon class="cls-1" points="8.97 7.37 27.19 7.37 33.65 13.88 18.1 32.1 2.35 13.88 8.97 7.37"/>
        <polygon class="cls-2" points="9.61 8.87 17.47 8.87 17.47 12.72 14.98 12.72 14.98 11.39 13.21 11.39 13.21 23.92 10.67 21.07 10.67 11.44 9.28 12.83 5.89 12.83 9.61 8.87"/>
        <polygon class="cls-2" points="21.25 22.25 21.25 11.39 25.43 11.39 27.01 12.97 30.53 12.97 26.5 8.94 18.68 8.94 18.68 28.88 27.19 19.15 23.92 19.15 21.25 22.25"/>
      </g>
    </g>
  </g>
</svg>